inDegrees=no
num_controls=7
num_derivatives=13
num_iterations=137
num_multipliers=7
num_parameters=0
num_slacks=7
num_states=26
objective=0.516747
objective_accelerations=0.039689
objective_balance=0.002198
objective_effort=0.043649
objective_height=0.419587
objective_ligament=0.011624
solver_duration=1803.156825
status=Solve_Succeeded
success=true
DataType=double
version=3
OpenSimVersion=4.5
endheader
time	/jointset/ground_pelvis/pelvis_tilt/value	/jointset/ground_pelvis/pelvis_tx/value	/jointset/ground_pelvis/pelvis_ty/value	/jointset/hip_l/hip_flexion_l/value	/jointset/hip_l/hip_adduction_l/value	/jointset/hip_l/hip_rotation_l/value	/jointset/back/lumbar_extension/value	/jointset/patellofemoral_l/patellar_flexion_l/value	/jointset/knee_l/knee_flexion_l/value	/jointset/knee_l/knee_adduction_l/value	/jointset/knee_l/knee_rotation_l/value	/jointset/ankle_l/ankle_angle_l/value	/jointset/subtalar_l/subtalar_angle_l/value	/jointset/ground_pelvis/pelvis_tilt/speed	/jointset/ground_pelvis/pelvis_tx/speed	/jointset/ground_pelvis/pelvis_ty/speed	/jointset/hip_l/hip_flexion_l/speed	/jointset/hip_l/hip_adduction_l/speed	/jointset/hip_l/hip_rotation_l/speed	/jointset/back/lumbar_extension/speed	/jointset/patellofemoral_l/patellar_flexion_l/speed	/jointset/knee_l/knee_flexion_l/speed	/jointset/knee_l/knee_adduction_l/speed	/jointset/knee_l/knee_rotation_l/speed	/jointset/ankle_l/ankle_angle_l/speed	/jointset/subtalar_l/subtalar_angle_l/speed	/forceset/tau_hip_flexion_l	/forceset/tau_hip_adduction_l	/forceset/tau_hip_rotation_l	/forceset/tau_knee_flexion_l	/forceset/tau_ankle_angle_l	/forceset/tau_subtalar_angle_l	/forceset/tau_lumbar_extension	lambda_cid13_p0	lambda_cid13_p1	lambda_cid13_p2	lambda_cid13_p3	lambda_cid13_p4	lambda_cid13_p5	lambda_cid14_p0	/jointset/ground_pelvis/pelvis_tilt/accel	/jointset/ground_pelvis/pelvis_tx/accel	/jointset/ground_pelvis/pelvis_ty/accel	/jointset/hip_l/hip_flexion_l/accel	/jointset/hip_l/hip_adduction_l/accel	/jointset/hip_l/hip_rotation_l/accel	/jointset/back/lumbar_extension/accel	/jointset/patellofemoral_l/patellar_flexion_l/accel	/jointset/knee_l/knee_flexion_l/accel	/jointset/knee_l/knee_adduction_l/accel	/jointset/knee_l/knee_rotation_l/accel	/jointset/ankle_l/ankle_angle_l/accel	/jointset/subtalar_l/subtalar_angle_l/accel	gamma_cid13_p0	gamma_cid13_p1	gamma_cid13_p2	gamma_cid13_p3	gamma_cid13_p4	gamma_cid13_p5	gamma_cid14_p0
0.5	-0.1187161976935507	-0.05565854451303934	0.8247249851323004	0.8892050902436593	-0.3237311632992143	-0.1231211444294636	-0.7782864153093378	0.7879675714049166	0.7879675714050475	-0.1088187520147062	-0.1745267412324615	0.07165463795061851	-0.00672652212774685	-0.2016371523343628	-0.2055393166363582	-0.3386295759002073	1.487029089943426	-0.0409854354716213	0.4564044672122894	-0.8397617651493815	1.435317472199978	1.435317472199956	0.1317921428014842	2.237257812751431e-05	0.2410492984145766	0.03179786958574615	-0.2800793298153898	0.01463888860817964	-0.003330887275682549	-0.2119543840731332	0.1136689785313558	0.05444554709096458	0.3286973303544578	-7.856181512790081	-23.80292607361444	5.09133971564942	-9.571204314890144	-703.0312285683325	-81.86288410625004	-14.91420654020863	0.2759142671214781	0.64559474179174	-0.1179329325235296	-1.417396388512219	0.2180499478099673	-0.3380203326699697	1.68098575588814	-1.097739144959986	-1.097739144959982	-0.2944939766343772	0.02416371027818191	-0.005796107476373344	0.2375991872497592	-5.899960319056066e-08	-4.693878439084561e-07	1.032305528213125e-07	-4.994355307754103e-08	-8.381609854389832e-08	-5.376046126636439e-08	-8.118275418886609e-08
0.51	-0.1207184971319448	-0.05768155273879059	0.821333526310679	0.9040023323871443	-0.3241305175696347	-0.1185751429163966	-0.7865990692876248	0.8022636332903156	0.8022636332903993	-0.107516064032461	-0.1745261917314711	0.07406415671988731	-0.006397296542485189	-0.1987919303281745	-0.1990526463872009	-0.3395864366493215	1.472211134230898	-0.03888450805798584	0.4527253001350939	-0.8226803271293506	1.423683223381977	1.423683223382043	0.1287508725343584	7.78128701392403e-05	0.2408068099568897	0.03403498028900124	-0.2865065922905646	0.01498644997524701	-0.003542015054471957	-0.2144015790330483	0.113766617812935	0.05488684497827246	0.3348674314647686	-8.042768624212529	-23.92177846206127	5.064446166914524	-9.567489837471141	-706.9109274116413	-81.79446370779276	-14.38909482292217	0.293441321681095	0.6516474684134793	-0.07321724007394503	-1.545232290990921	0.2062842118578493	-0.3935207351083491	1.735028331843444	-1.228003250179884	-1.228003250166891	-0.3082027182338092	-0.005182406864899559	-0.040637231758089	0.2149769928786782	-8.024093266688639e-08	-3.57082762069752e-07	2.801834282533056e-07	-1.771088255080246e-08	-9.717897543685731e-08	-4.26942301961182e-08	-8.915345302704701e-08
0.52	-0.1226914213194139	-0.05963940540166309	0.8179347679627729	0.9186451475478311	-0.3245088285511752	-0.1140680642420738	-0.7947382477843548	0.8164370055875425	0.8164370055875796	-0.1062436405861843	-0.1745253711466661	0.07646981820121071	-0.006046057853987911	-0.1957621021494444	-0.1925082040606104	-0.3400894811571817	1.456143693383658	-0.03677677769565051	0.4486198994633379	-0.8050666688380054	1.410779554565583	1.410779554565736	0.125739235607948	7.658934104839892e-05	0.2402778408254733	0.03620049023286833	-0.2929338547657374	0.01533401134231674	-0.003753142833265458	-0.2168487739929628	0.1138642570945148	0.0553281428655831	0.3410375325750806	-8.232514651416384	-24.04108090256285	5.038770345412601	-9.590133388416863	-710.8626889867588	-81.75132862034074	-13.86101525664851	0.3128355016298045	0.6571491572784126	-0.02716968427275825	-1.667293415454741	0.2194105375499413	-0.4232670515820964	1.787429810150958	-1.351623144638655	-1.351623144638605	-0.288567308491286	0.01283094605766844	-0.06309224222226165	0.2232790353721635	-1.092662511317257e-07	-2.080712328250973e-07	5.227855058016208e-07	2.749484234883295e-08	-1.181468896670914e-07	-2.572653560923575e-08	-1.003260269939197e-07
0.53	-0.1246331966485152	-0.06153159679937691	0.814533272004459	0.9331211045114653	-0.3248661680453493	-0.1096030759855532	-0.8026987665186904	0.8304748999932894	0.8304748999932443	-0.1050021105353073	-0.1745241291548499	0.07886865063856451	-0.00567372920873319	-0.1925697321042849	-0.1859276791813332	-0.3401310104673203	1.438846231590545	-0.0346931437755565	0.4443021194962088	-0.7869619729910634	1.396580319879686	1.396580319879869	0.122570568699149	0.0001583473354083884	0.2394327815904831	0.03824686212009331	-0.2991085290885732	0.01565894685100872	-0.003957679311081033	-0.2193933237647955	0.1139300942342063	0.05560435605560693	0.3469506012034647	-8.438408612064316	-24.08284219723026	4.997285319882032	-9.493696087645331	-714.7562402222302	-81.59924240847346	-13.33066743860491	0.3259092325845191	0.6588738462457649	0.0191346192896223	-1.791209333148738	0.2024635631543686	-0.4474784254107644	1.833255227662483	-1.486903397295158	-1.486903397290668	-0.3304503511815232	0.003959185275567776	-0.1035943546012707	0.192504565318229	-1.220508275483182e-07	-1.125858555731259e-07	6.488735730568605e-07	5.256734988938177e-08	-1.246070797557692e-07	-1.075895307978304e-08	-1.037010125726462e-07
0.54	-0.1265423539818394	-0.06335790900969926	0.8111337165877787	0.947418039502787	-0.3252027464515394	-0.1051835545199299	-0.8104759851434173	0.8443642360988314	0.8443642360987038	-0.1037921539473405	-0.17452244739126	0.08125735616547572	-0.0052814991846221	-0.189238502994107	-0.1793323665823179	-0.3397013728305005	1.420339298921061	-0.03262456009885344	0.4395265412837819	-0.7684066469162557	1.381067894524592	1.381067894524805	0.1194245430260578	0.0001645436957846467	0.2382524587369378	0.04018076600414101	-0.3052832034114085	0.01598388235970238	-0.004162215788900778	-0.2219378735366278	0.1139959313738982	0.05588056924563282	0.3528636698318491	-8.648062082612583	-24.12483039824292	4.956848096564422	-9.426083858065331	-718.732384753763	-81.48472748833022	-12.79891440199391	0.3406073146334786	0.6601067012260255	0.06706370511893907	-1.909187590729208	0.2164004888717487	-0.51482670064167	1.877555855724088	-1.614261278478025	-1.614261278478032	-0.2840390613496951	-0.002281380739078135	-0.1301449659332998	0.2007854347367111	-1.168669234008927e-07	-7.632090180242184e-08	6.460525225410365e-07	5.536480843689836e-08	-1.150161707942143e-07	1.995739513789926e-09	-9.844887908363641e-08
0.55	-0.1284175170485126	-0.06511823440336657	0.8077408164611327	0.9615239740348233	-0.3255187257100136	-0.1008137284301294	-0.8180654662941685	0.85809203485257	0.8580920348524484	-0.1026136975015078	-0.1745208507959719	0.08363266029864627	-0.004870487047579108	-0.1857695844777952	-0.1727339801626759	-0.3387990094713957	1.400650080767489	-0.03057958045124029	0.4343851416265858	-0.7494240660010383	1.364283466969333	1.364283466969532	0.1162522123656378	0.0001518585572822971	0.236757415502758	0.04199759361174144	-0.3112949592435997	0.01620231819707225	-0.00433816367262992	-0.2244529572701413	0.1139524715605818	0.05609628387949326	0.3585976131602422	-8.889350472931588	-24.13420852160603	4.910301595036886	-9.286233718541112	-722.5939431387824	-81.33517997235349	-12.26671756207301	0.3537002625545168	0.659525788758571	0.1137471484496014	-2.02843377312832	0.1972215948216619	-0.5219160760891588	1.918436794350319	-1.74177276530828	-1.741772765310228	-0.3360023091253843	-0.00107147521494435	-0.1668256296143981	0.1684549612966552	-1.09822308942219e-07	-4.283098642067383e-08	6.329980134965767e-07	5.633049449340629e-08	-1.035931394965476e-07	1.394791169203873e-08	-9.217105480755736e-08
0.5600000000000001	-0.1302572577015374	-0.0668126116975524	0.8043593248675065	0.9754270874162326	-0.3258145201935884	-0.09649694023246684	-0.8254631561187816	0.8716457414765044	0.8716457414763884	-0.1014673988104266	-0.1745194429310309	0.08599148567398426	-0.004442041926955118	-0.1821540202645049	-0.1661427466860198	-0.3374196662265594	1.37977506879563	-0.02858760511900472	0.4289189628561665	-0.7300483816886312	1.346249468563739	1.346249468563925	0.1129929920757287	0.0001267976264148585	0.2349567071704152	0.04366736272033982	-0.317306715075791	0.01642075403444274	-0.004514111556357017	-0.2269680410036549	0.1139090117472655	0.05631199851335438	0.3643315564886354	-9.1351114736703	-24.14372122864328	4.864825308070645	-9.172432807257373	-726.5468422699388	-81.22274517380106	-11.73514159534453	0.3699364540291835	0.6586761126288551	0.1624596822652485	-2.146346354386671	0.2057996257962341	-0.5797825232862988	1.956176535162043	-1.86417544854492	-1.864175448544917	-0.3014169872475063	-0.004756539212096187	-0.1912779855659038	0.1713737349363046	-1.005448421100474e-07	-1.267111710567301e-08	6.076633542177544e-07	5.509805356070389e-08	-8.997156139554692e-08	2.493705937189858e-08	-8.466240158699524e-08
0.5700000000000001	-0.1320601602644823	-0.06844116035050526	0.80099399720313	0.9891157348808803	-0.3260905673566197	-0.09223641728980141	-0.8326652286029445	0.8850130571482419	0.8850130571482206	-0.1003538875071788	-0.174518264999221	0.08833087370325662	-0.003997504385893893	-0.1784040227716867	-0.1595725935581901	-0.3355668734220563	1.357768826716392	-0.02662883014958174	0.4231282976381868	-0.7103144650289341	1.327018911883513	1.327018911883503	0.1097069562330324	0.0001050828052550795	0.232875780404064	0.0452192886799585	-0.3230095687924225	0.01655930491672732	-0.004665199711692648	-0.2295085487992971	0.1138609136123342	0.05641539022207328	0.3697481708386057	-9.374311277727115	-24.10354295060883	4.80907572317667	-9.001195364993661	-730.2783069814692	-81.04288140009112	-11.20524045519551	0.3808904964094089	0.6553543450127425	0.2085216102660494	-2.255616624890453	0.1897835391632105	-0.5873816787884679	1.989746748612618	-1.981692779783219	-1.981692779812569	-0.3425282863778593	-0.001317451359261804	-0.2232638726345195	0.1439033556502576	-9.142870152898354e-08	1.327999232372309e-08	5.793034326691891e-07	5.351260156531571e-08	-7.739408226164151e-08	3.432929180652731e-08	-7.728846309990256e-08
0.58	-0.1338248910325984	-0.07000417358574927	0.7976495639729431	1.002578749226696	-0.3263472533486271	-0.08803553563086332	-0.8396684124170626	0.8981822278527725	0.8981822278528446	-0.09927330284307594	-0.1745173919151817	0.09064809969477243	-0.003538087319401357	-0.1745196612988186	-0.1530356631442489	-0.3332407793886281	1.334648445029232	-0.02471537091424304	0.4169907061108206	-0.6902706476796747	1.306620475122416	1.306620475122211	0.1064076642464496	6.582807244176372e-05	0.230524299619121	0.04664326780660148	-0.3287124225090556	0.01669785579901041	-0.004816287867016088	-0.2320490565949403	0.1138128154774024	0.05651878193079018	0.3751647851885753	-9.618900667479078	-24.06325720554824	4.754264668938208	-8.8518361399846	-734.1121555105669	-80.89817531858016	-10.67826388812102	0.3968092500391689	0.6520315698511713	0.2571199280502601	-2.369174275971121	0.1967364789793808	-0.6491677851636121	2.018156673074528	-2.097751464719186	-2.097751464719184	-0.3040682160247905	-0.00826452154280353	-0.2453887892842566	0.1457843683411681	-8.252266025168782e-08	3.374992608814554e-08	5.470036346763079e-07	5.146741423247633e-08	-6.617635992209285e-08	4.164182066597134e-08	-7.008996705639806e-08
